<svg xmlns="http://www.w3.org/2000/svg" viewBox="0 0 24 24" width="24" height="24">
  <path fill="#4285F4" d="M12 0C5.383 0 0 5.383 0 12s5.383 12 12 12 12-5.383 12-12S18.617 0 12 0zm0 22C6.486 22 2 17.514 2 12S6.486 2 12 2s10 4.486 10 10-4.486 10-10 10z"/>
  <path fill="#4285F4" d="M10.5 16.5c-1.103 0-2-.897-2-2s.897-2 2-2 2 .897 2 2-.897 2-2 2zm0-3c-.551 0-1 .449-1 1s.449 1 1 1 1-.449 1-1-.449-1-1-1z"/>
  <path fill="#4285F4" d="M12 7.5c-2.481 0-4.5 2.019-4.5 4.5h1c0-1.93 1.57-3.5 3.5-3.5v-1z"/>
</svg>