<svg xmlns="http://www.w3.org/2000/svg" viewBox="0 0 517 89" width="24" height="24">
  <path d="M206.4 61.9c-6.6 0-12.4-2.3-16.5-6.3-4.2-4-6.2-9.5-6.2-15.7 0-6.2 2.1-11.7 6.2-15.7 4.1-4 9.9-6.3 16.5-6.3 6.2 0 11.5 2.1 15.5 5.8l-4.4 4.4c-3-2.8-7-4.2-11.1-4.2-4.3 0-8.1 1.5-11 4.4-3 2.9-4.4 6.9-4.4 11.6s1.5 8.7 4.4 11.6c2.9 2.9 6.7 4.4 11 4.4 4.5 0 8.3-1.5 11.3-4.4 1.9-1.9 3.1-4.6 3.5-8.1h-14.8v-6h20.9c.2 1.1.3 2.4.3 3.8 0 6.2-1.8 11.1-5.4 14.6-4.2 4.3-9.9 6.1-16.8 6.1z" fill="#4285F4"/>
  <path d="M275.3 45.4c0 4.9-1.4 8.7-4.1 11.7-2.9 3.2-6.7 4.8-11.3 4.8-4.5 0-8.2-1.6-11.3-4.8-2.7-3-4.1-6.8-4.1-11.7s1.4-8.7 4.1-11.7c3.1-3.2 6.8-4.8 11.3-4.8 4.6 0 8.4 1.6 11.3 4.8 2.7 3 4.1 6.8 4.1 11.7zm-6.1 0c0-3.1-.8-5.8-2.4-7.9-1.8-2.4-4.1-3.6-7-3.6s-5.2 1.2-7 3.6c-1.6 2.2-2.4 4.8-2.4 7.9s.8 5.8 2.4 7.9c1.8 2.4 4.1 3.6 7 3.6s5.2-1.2 7-3.6c1.6-2.1 2.4-4.8 2.4-7.9z" fill="#EA4335"/>
  <path d="M302.9 45.4c0 4.9-1.4 8.7-4.1 11.7-2.9 3.2-6.7 4.8-11.3 4.8-4.5 0-8.2-1.6-11.3-4.8-2.7-3-4.1-6.8-4.1-11.7s1.4-8.7 4.1-11.7c3.1-3.2 6.8-4.8 11.3-4.8 4.6 0 8.4 1.6 11.3 4.8 2.7 3 4.1 6.8 4.1 11.7zm-6.1 0c0-3.1-.8-5.8-2.4-7.9-1.8-2.4-4.1-3.6-7-3.6s-5.2 1.2-7 3.6c-1.6 2.2-2.4 4.8-2.4 7.9s.8 5.8 2.4 7.9c1.8 2.4 4.1 3.6 7 3.6s5.2-1.2 7-3.6c1.6-2.1 2.4-4.8 2.4-7.9z" fill="#FBBC05"/>
  <path d="M324.3 29.7c4.1 0 7.3 1.4 9.7 4.1 2.4 2.7 3.6 6.4 3.6 11v15.7h-6v-15.4c0-3.3-.8-5.8-2.3-7.4-1.5-1.6-3.7-2.4-6.3-2.4-2.6 0-4.7.8-6.3 2.4-1.6 1.6-2.3 4.1-2.3 7.4v15.4h-6V30.3h6v3.7c1.2-1.3 2.7-2.4 4.4-3.1 1.7-.8 3.6-1.2 5.5-1.2z" fill="#4285F4"/>
  <path d="M360.1 61.3c-4.5 0-8.3-1.6-11.3-4.8-2.7-3-4.1-6.8-4.1-11.7s1.4-8.7 4.1-11.7c3-3.2 6.8-4.8 11.3-4.8 2.3 0 4.4.4 6.4 1.2 2 .8 3.6 1.9 4.7 3.3l-4 4c-1.5-1.8-3.9-2.7-7.1-2.7-2.9 0-5.2 1.2-7 3.6-1.6 2.2-2.4 4.8-2.4 7.9s.8 5.8 2.4 7.9c1.8 2.4 4.1 3.6 7 3.6 3.2 0 5.6-.9 7.1-2.7l4 4c-1.2 1.4-2.8 2.5-4.8 3.3-2 .8-4.2 1.2-6.3 1.2z" fill="#EA4335"/>
</svg>